<?xml version="1.0" encoding="UTF-8" standalone="yes"?>
<!-- Created with sK1/UniConvertor (http://sk1project.org/) -->
<svg xmlns="http://www.w3.org/2000/svg" xmlns:xlink="http://www.w3.org/1999/xlink"
  width="819.2pt" height="819.2pt" viewBox="0 0 819.2 819.2"
  fill-rule="evenodd">
<g>
<path style="stroke:none; fill:#2c78a8" d="M 143.943 25.6L 675.257 25.6C 740.614 25.6 793.6 78.5843 793.6 143.943L 793.6 675.257C 793.6 740.614 740.614 793.6 675.257 793.6L 143.943 793.6C 78.5843 793.6 25.6 740.614 25.6 675.257L 25.6 143.943C 25.6 78.5843 78.5843 25.6 143.943 25.6"/>
<g>
<path style="stroke:none; fill:#dceaf7" d="M 409.592 113.412L 67.5835 705.788L 751.598 705.788L 751.598 705.788L 506.157 705.788L 567.517 599.508L 251.668 599.508L 409.592 325.974L 567.517 599.507L 628.88 493.226L 409.592 113.412z"/>
<path style="stroke:none; fill:#dceaf7" d="M 751.617 705.788L 559.848 705.788L 655.734 539.711L 751.617 705.788z"/>
</g>
</g>
</svg>