<?xml version="1.0" encoding="UTF-8" standalone="yes"?>
<!-- Created with sK1/UniConvertor (http://sk1project.org/) -->
<svg xmlns="http://www.w3.org/2000/svg" xmlns:xlink="http://www.w3.org/1999/xlink"
  width="819.2pt" height="819.2pt" viewBox="0 0 819.2 819.2"
  fill-rule="evenodd">
<g>
<path style="stroke:none; fill:#1b1413" d="M 143.943 25.6L 675.257 25.6C 740.614 25.6 793.6 78.5843 793.6 143.943L 793.6 675.257C 793.6 740.614 740.614 793.6 675.257 793.6L 143.943 793.6C 78.5843 793.6 25.6 740.614 25.6 675.257L 25.6 143.943C 25.6 78.5843 78.5843 25.6 143.943 25.6"/>
<g>
<path style="stroke:none; fill:#ffffff" d="M 275.476 794.148C 296.939 798.124 304.819 784.833 304.819 773.49C 304.819 763.251 304.421 729.416 304.236 693.533C 184.758 719.51 159.546 642.864 159.546 642.864C 140.011 593.221 111.862 580.021 111.862 580.021C 72.897 553.367 114.8 553.914 114.8 553.914C 157.925 556.936 180.633 598.178 180.633 598.178C 218.937 663.827 281.101 644.845 305.608 633.875C 309.463 606.117 320.593 587.162 332.875 576.444C 237.485 565.584 137.209 528.76 137.209 364.2C 137.209 317.312 153.985 279.001 181.458 248.925C 176.999 238.101 162.299 194.428 185.618 135.272C 185.618 135.272 221.683 123.73 303.753 179.294C 338.01 169.779 374.75 165.006 411.247 164.843C 447.745 165.006 484.513 169.779 518.834 179.294C 600.804 123.73 636.82 135.272 636.82 135.272C 660.196 194.428 645.489 238.102 641.028 248.925C 668.567 279.001 685.229 317.312 685.229 364.2C 685.229 529.151 584.76 565.471 489.128 576.103C 504.533 589.431 518.258 615.564 518.258 655.636C 518.258 713.1 517.76 759.349 517.76 773.49C 517.76 784.919 525.491 798.31 547.26 794.094"/>
<path style="stroke:none; fill:#1b1413" d="M 144.441 573.784C 143.495 575.925 140.139 576.558 137.081 575.093C 133.966 573.692 132.216 570.784 133.226 568.643C 134.151 566.452 137.515 565.84 140.622 567.298C 143.744 568.707 145.522 571.644 144.441 573.784L 144.441 573.784"/>
<path style="stroke:none; fill:#1b1413" d="M 161.837 593.186C 159.788 595.085 155.785 594.202 153.068 591.201C 150.259 588.207 149.732 584.203 151.809 582.276C 153.921 580.384 157.804 581.273 160.621 584.26C 163.43 587.29 163.977 591.265 161.837 593.186L 161.837 593.186"/>
<path style="stroke:none; fill:#1b1413" d="M 178.77 617.918C 176.139 619.746 171.836 618.031 169.176 614.215C 166.545 610.398 166.545 605.818 169.233 603.981C 171.9 602.147 176.139 603.804 178.834 607.586C 181.458 611.469 181.458 616.05 178.77 617.918L 178.77 617.918"/>
<path style="stroke:none; fill:#1b1413" d="M 201.968 641.813C 199.615 644.413 194.601 643.715 190.931 640.171C 187.176 636.707 186.13 631.794 188.492 629.201C 190.874 626.595 195.917 627.333 199.615 630.843C 203.341 634.3 204.479 639.247 201.968 641.813L 201.968 641.813"/>
<path style="stroke:none; fill:#1b1413" d="M 233.972 655.689C 232.933 659.053 228.104 660.583 223.24 659.153C 218.382 657.684 215.204 653.741 216.185 650.344C 217.195 646.959 222.045 645.364 226.945 646.893C 231.795 648.356 234.981 652.272 233.972 655.689L 233.972 655.689"/>
<path style="stroke:none; fill:#1b1413" d="M 269.118 658.269C 269.239 661.806 265.114 664.745 260.008 664.811C 254.873 664.924 250.72 662.059 250.663 658.568C 250.663 654.991 254.695 652.086 259.83 651.999C 264.936 651.899 269.118 654.745 269.118 658.269L 269.118 658.269"/>
<path style="stroke:none; fill:#1b1413" d="M 301.825 652.697C 302.437 656.155 298.888 659.705 293.818 660.649C 288.832 661.56 284.216 659.426 283.583 655.995C 282.965 652.458 286.578 648.907 291.556 647.99C 296.633 647.106 301.178 649.187 301.825 652.697L 301.825 652.697"/>
</g>
</g>
</svg>