<svg width="819.1999999999999" height="819.1999999999999" 
xmlns="http://www.w3.org/2000/svg" 
xmlns:svg="http://www.w3.org/2000/svg">
 <g>
  <title>Layer 1</title>
  <path d="m143.942993,25.6l531.314026,0c65.356995,0 
118.342957,52.984297 118.342957,118.342993l0,531.314026c0,65.356995 
-52.985962,118.342957 -118.342957,118.342957l-531.314026,0c-65.358696,0 
-118.342995,-52.985962 
-118.342995,-118.342957l0,-531.314026c0,-65.358696 52.984299,-118.342993 
118.342995,-118.342993" fill="#254e77" id="svg_2"/>
  <g id="svg_95">
   <!-- Generator: Sketch 3.3.2 (12043) - 
http://www.bohemiancoding.com/sketch -->
   <title>wm_no_bg</title>
   <desc>Created with Sketch.</desc>
   <g id="svg_97" transform="matrix(1.83239, 0, 0, 1.83239, 66.7254, 
103.395)">
    <g id="svg_87" fill="#8C929D"/>
    <g id="svg_76">
     <path 
d="m185.398407,341.129791l0,0l68.013,-209.321991l-136.026016,0l68.013,209.321991l0,0l0.000015,0z" 
id="svg_86" fill="#E24329"/>
     <path id="svg_85" fill="#E24329"/>
     <path 
d="m185.398407,341.129395l-68.013008,-209.320999l-95.319,0l163.331993,209.320999l0.000015,0z" 
id="svg_84" fill="#FC6D26"/>
     <path id="svg_83" fill="#E24329"/>
     <path 
d="m22.066401,131.808105l0,0l-20.669001,63.610992c-1.885,5.802002 
0.18,12.158005 
5.116,15.742996l178.885007,129.966995l-163.331999,-209.320984l-0.000008,0z" 
id="svg_82" fill="#FCA326"/>
     <path id="svg_81" fill="#E24329" transform="translate(-0.727647) 
translate(0.727647) translate(-0.727647) translate(0.727647) 
translate(-0.727647) translate(-0.727647) translate(-0.727647) 
translate(0.727647) translate(0.727647) translate(0.727647)"/>
     <path 
d="m22.066401,131.808304l95.318998,0l-40.963997,-126.073006c-2.108002,-6.487 
-11.285004,-6.487 -13.391994,0l-40.963003,126.073006l-0.000004,0z" 
id="svg_80" fill="#E24329"/>
     <path 
d="m185.398407,341.129395l68.013,-209.320999l95.319,0l-163.332001,209.320999z" 
id="svg_79" fill="#FC6D26"/>
     <path 
d="m348.730286,131.808105l0,0l20.669006,63.610992c1.88501,5.802002 
-0.179993,12.158005 
-5.115997,15.742996l-178.884995,129.966995l163.331985,-209.320984z" 
id="svg_78" fill="#FCA326"/>
     <path 
d="m348.730286,131.808304l-95.318985,0l40.964005,-126.073006c2.108002,-6.487 
11.285004,-6.487 13.391998,0l40.962982,126.073006z" id="svg_77" 
fill="#E24329"/>
    </g>
   </g>
  </g>
  <g id="svg_29"/>
 </g>

</svg>
