<?xml version="1.0" encoding="UTF-8" standalone="yes"?>
<!-- Created with sK1/UniConvertor (http://sk1project.org/) -->
<svg xmlns="http://www.w3.org/2000/svg" xmlns:xlink="http://www.w3.org/1999/xlink"
  width="819.2pt" height="819.2pt" viewBox="0 0 819.2 819.2"
  fill-rule="evenodd">
<g>
<path style="stroke:none; fill:#000000" d="M 143.943 25.6L 675.257 25.6C 740.614 25.6 793.6 78.5843 793.6 143.943L 793.6 675.257C 793.6 740.614 740.614 793.6 675.257 793.6L 143.943 793.6C 78.5843 793.6 25.6 740.614 25.6 675.257L 25.6 143.943C 25.6 78.5843 78.5843 25.6 143.943 25.6"/>
<path style="stroke:none; fill:#ffffff" d="M 523.999 591.185C 551.888 583.985 571.955 561.843 577.076 532.62C 578.146 526.515 579.234 521.346 579.487 521.132C 579.74 520.919 598.724 506.63 621.671 489.38L 663.389 458.016L 672.061 456.815C 695.958 453.499 713.416 445.54 728.538 431.063C 760.853 400.123 767.338 351.905 744.338 313.585C 731.87 292.808 710.2 276.992 685.347 270.527C 674.121 267.607 653.124 267.789 641.431 270.91C 602.625 281.268 574.93 312.527 570.661 350.782C 569.578 360.474 569.417 360.864 562.387 371.094C 558.444 376.83 544.22 396.593 530.781 415.011C 508.961 444.911 505.993 448.529 503.072 448.798C 495.6 449.486 482.879 452.796 476.318 455.759C 472.461 457.502 468.619 458.927 467.781 458.927C 466.125 458.927 431.662 444.453 309.86 392.597C 266.382 374.087 224.809 356.401 217.474 353.295L 204.14 347.649L 200.584 338.237C 196.253 326.774 191.074 318.704 182.919 310.715C 152.508 280.919 102.088 284.459 76.1508 318.209C 66.008 331.406 61.1808 345.787 61.1808 362.804C 61.1808 375.09 63.1205 383.094 69.0444 395.248C 75.0932 407.659 87.6229 420.521 99.4587 426.471C 121.229 437.414 144.859 437.478 166.361 426.649L 174.077 422.764L 199.699 433.595C 229.958 446.386 271.498 464.033 347.189 496.254C 361.682 502.423 386.879 513.12 403.183 520.026C 419.487 526.931 433.376 533.178 434.045 533.907C 434.716 534.636 436.692 539.43 438.437 544.56C 444.58 562.616 456.366 576.44 473.074 585.185C 477.696 587.605 484.366 590.284 487.895 591.138C 496.699 593.269 515.828 593.294 523.999 591.185zM 497.894 577.467C 489.523 576.057 482.272 573.272 475.441 568.841C 468.467 564.317 461.495 557.192 460.272 553.339C 459.079 549.578 462.877 545.192 467.686 544.78C 471.078 544.49 472.473 545.237 478.369 550.498C 492.37 562.991 508.804 565.098 525.733 556.569C 538.63 550.073 545.77 537.636 545.861 521.51C 545.907 513.284 545.511 511.33 542.516 505.04C 538.35 496.289 531.407 489.151 523.407 485.394C 518.493 483.087 515.423 482.497 506.937 482.235C 492.732 481.798 491.703 481.481 489.822 476.98C 486.001 467.835 496.719 462.743 513.979 465.5C 534.493 468.777 552.634 483.815 559.8 503.482C 563.453 513.51 563.229 530.464 559.309 540.513C 551.616 560.236 534.703 574.168 514.467 577.452C 506.676 578.716 505.319 578.717 497.894 577.467zM 652.962 426.538C 649.038 425.663 643.6 424.128 640.884 423.127C 622.126 416.212 606.083 398.029 600.79 377.682C 598.298 368.122 599.069 351.351 602.435 341.754C 609.006 323.031 624.761 307.536 644.176 300.705C 649.89 298.694 653.721 298.182 663.389 298.138C 678.384 298.069 688.022 300.894 699.899 308.839C 727.013 326.972 736.283 361.453 721.995 391.003C 709.779 416.261 678.683 432.267 652.962 426.538zM 672.25 409.429C 692.229 405.78 708.329 389.266 711.045 369.634C 715.056 340.642 692.994 315.099 663.941 315.099C 644.566 315.099 628.26 325.864 619.784 344.244C 617.638 348.911 617.28 351.48 617.28 362.31C 617.28 374.186 617.482 375.369 620.722 382.208C 627.834 397.213 640.073 406.609 656.253 409.484C 663.412 410.756 665.017 410.749 672.25 409.429zM 124.311 418.636C 117.358 417.712 107.276 413.629 100.767 409.1C 88.9262 400.859 80.3859 388.116 77.5503 374.458C 75.7354 365.718 76.8413 350.026 79.8249 342.192C 84.9392 328.761 98.8913 314.791 112.427 309.548C 120.085 306.58 136.979 305.436 145.656 307.297C 160.594 310.501 177.932 323.299 180.325 332.886C 180.906 335.212 180.447 336.467 178.196 338.718C 174.391 342.523 172.163 341.74 163.623 333.597C 159.882 330.029 153.953 325.767 150.448 324.124C 144.78 321.469 142.797 321.139 132.545 321.139C 122.355 321.139 120.317 321.473 114.979 324.028C 106.864 327.913 98.9466 336.034 94.7841 344.743C 91.6716 351.256 91.3735 352.84 91.3735 362.859C 91.3741 372.627 91.7084 374.52 94.4071 380.013C 98.6854 388.722 104.94 395.372 112.789 399.555C 118.458 402.576 121.496 403.356 131.771 404.427C 143.377 405.638 144.09 405.858 145.686 408.711C 147.19 411.4 147.192 412.031 145.704 414.691C 144.789 416.326 142.813 418.007 141.313 418.424C 138.382 419.239 129.675 419.348 124.311 418.636z"/>
</g>
</svg>